# xmcd
#
# Track frame offsets:
#	150
#	14459
#	32687
#	51610
#	72001
#	88732
#	104800
#	121784
#	133260
#	146184
#	164980
#	175863
#
# Disc length: 2670 seconds
# Revision: 0
# Processed by: cddbd v1.5.2PL0 Copyright (c) Steve Scherf et al.
# Submitted via: dBpowerAMP V12.0
#
DISCID=ba0a6c0c
DTITLE=Algiers - The Underside Of Power
DYEAR=2017
DGENRE=Punk Blues
TTITLE0=Walk Like a Panther
TTITLE1=Cry of the Martyrs
TTITLE2=The Underside of Power
TTITLE3=Death March
TTITLE4=A Murmur. A Sign.
TTITLE5=Mme Rieux
TTITLE6=Cleveland
TTITLE7=Animals
TTITLE8=Plague Years
TTITLE9=A Hymn for an Average Man
TTITLE10=Bury Me Standing
TTITLE11=The Cycle/The Spiral: Time to Go Down Slowly
EXTD=
EXTT0=
EXTT1=
EXTT2=
EXTT3=
EXTT4=
EXTT5=
EXTT6=
EXTT7=
EXTT8=
EXTT9=
EXTT10=
EXTT11=
PLAYORDER=
